<?xml version="1.0" encoding="UTF-8" standalone="no"?>
<!-- Created with Inkscape (http://www.inkscape.org/) -->
<svg xmlns:dc="http://purl.org/dc/elements/1.1/" xmlns:cc="http://creativecommons.org/ns#" xmlns:rdf="http://www.w3.org/1999/02/22-rdf-syntax-ns#" xmlns:svg="http://www.w3.org/2000/svg" xmlns="http://www.w3.org/2000/svg" xmlns:sodipodi="http://sodipodi.sourceforge.net/DTD/sodipodi-0.dtd" xmlns:inkscape="http://www.inkscape.org/namespaces/inkscape" width="297mm" height="210mm" viewBox="0 0 1052.3622 744.09448" id="svg2" version="1.1" inkscape:version="0.92.4 (unknown)" sodipodi:docname="allright_net.svg" inkscape:export-filename="/home/yromero/git/allright/src/allright/static/image/allright_net_164x116.png" inkscape:export-xdpi="14.030476" inkscape:export-ydpi="14.030476">
  <defs id="defs4"/>
  <sodipodi:namedview id="base" pagecolor="#ffffff" bordercolor="#666666" borderopacity="1.0" inkscape:pageopacity="0.0" inkscape:pageshadow="2" inkscape:zoom="1.979899" inkscape:cx="573.33817" inkscape:cy="425.34843" inkscape:document-units="px" inkscape:current-layer="layer1" showgrid="true" inkscape:window-width="3200" inkscape:window-height="1752" inkscape:window-x="0" inkscape:window-y="48" inkscape:window-maximized="1" inkscape:document-rotation="0" showguides="false" inkscape:pagecheckerboard="true">
    <inkscape:grid type="xygrid" id="grid4936"/>
  </sodipodi:namedview>
  <metadata id="metadata7">
    <rdf:RDF>
      <cc:Work rdf:about="">
        <dc:format>image/svg+xml</dc:format>
        <dc:type rdf:resource="http://purl.org/dc/dcmitype/StillImage"/>
        <dc:title/>
      </cc:Work>
    </rdf:RDF>
  </metadata>
  <g inkscape:label="Layer 1" inkscape:groupmode="layer" id="layer1" transform="translate(0,-308.26772)">
    <g id="g4553">
      <text id="text4560" y="984.08215" x="657.26489" style="font-style:normal;font-weight:normal;line-height:0%;font-family:sans-serif;letter-spacing:0px;word-spacing:0px;fill:#ffffff;fill-opacity:1;stroke:none;stroke-width:1px;stroke-linecap:butt;stroke-linejoin:miter;stroke-opacity:1;" xml:space="preserve"><tspan style="font-style:normal;font-variant:normal;font-weight:normal;font-stretch:normal;font-size:187.5px;line-height:1.25;font-family:sans-serif;-inkscape-font-specification:sans-serif;text-align:start;text-anchor:start;fill:#ffffff;fill-opacity:1;" id="tspan4564" y="984.08215" x="657.26489" sodipodi:role="line">Net</tspan></text>
      <path id="path4541" d="m 162.55185,531.0449 v 110.73047 110.72852 h 20.94922 20.94922 V 641.77537 531.0449 h -20.94922 z" style="fill:#ffffff" inkscape:connector-curvature="0"/>
      <path id="path4539" d="m 237.36826,531.0449 v 110.73047 110.72852 h 19.45312 19.45313 V 641.77537 531.0449 h -19.45313 z" style="fill:#ffffff" inkscape:connector-curvature="0"/>
      <path id="path4535" d="m 797.00107,531.0449 v 110.73047 110.72852 h 19.45117 19.45313 v -47.63867 c 0,-26.20101 0.83692,-49.81795 1.85937,-52.48243 2.8786,-7.50146 18.36281,-14.23561 27.91016,-12.13867 4.61107,1.01275 11.58399,5.24304 15.49414,9.40039 6.7723,7.20045 7.15365,9.81755 8.0625,55.20899 l 0.95508,47.65039 h 19.24609 19.24609 v -54.35352 c 0,-52.82347 -0.21475,-54.71855 -7.61132,-67.33984 -13.90837,-23.73281 -48.52431,-32.6028 -73.98438,-18.95703 l -11.17773,5.99218 V 574.44529 531.0449 h -19.45313 z" style="fill:#ffffff" inkscape:connector-curvature="0"/>
      <path id="path4533" d="m 582.19248,549.00193 c -12.81267,0 -21.62196,7.70813 -21.56836,18.87305 0.0526,10.97333 2.04975,14.69729 10.42968,19.44922 8.79032,4.98468 14.69944,4.32476 23.53711,-2.62695 14.91529,-11.73236 6.59173,-35.69532 -12.39843,-35.69532 z" style="fill:#ffffff" inkscape:connector-curvature="0"/>
      <path id="path4531" d="m 1012.4738,560.15818 -13.88484,1.9043 c -7.63664,1.04669 -17.06403,1.90234 -20.94922,1.90234 -6.7508,0 -7.0625,0.92928 -7.0625,20.94922 v 20.94922 h -10.47461 -10.47461 v 16.45899 16.46093 h 10.47461 10.47461 v 37.70313 c 0,49.63748 5.64375,62.29156 31.97266,71.68164 14.1689,5.05323 24.1756,5.31572 36.6621,0.96289 7.8803,-2.74659 9.3362,-4.55008 7.8555,-9.72461 -1,-3.49455 -2.6281,-10.05755 -3.6172,-14.58398 -1.5644,-7.15886 -3.2281,-8.23047 -12.7949,-8.23047 -6.049,0 -12.6146,-1.61663 -14.5898,-3.5918 -2.3873,-2.38738 -3.5918,-15.42838 -3.5918,-38.9043 v -35.3125 h 10.4746 10.4746 v -16.46093 -16.45899 h -10.4746 -10.4746 V 583.0117 Z" style="fill:#ffffff" inkscape:connector-curvature="0"/>
      <path id="path4527" d="m 78.495207,605.74217 c -11.980315,-0.10447 -25.186332,1.81355 -38.390625,5.82422 -11.49358,3.49109 -21.688468,7.62475 -22.654297,9.1875 -0.965858,1.56275 1.591062,8.14313 5.681641,14.62304 l 7.4375,11.78321 11.375,-4.0586 c 17.479395,-6.23484 37.589812,-5.42705 46.882812,1.88282 4.336907,3.41142 7.884766,8.12511 7.884766,10.47461 0,5.12003 -0.305488,5.15017 -11.027344,1.05468 -11.980909,-4.57638 -40.414446,-3.86191 -52.835937,1.32813 -22.317478,9.32484 -35.2418078,45.91608 -23.8476568,67.51562 6.5289908,12.37678 17.5858508,20.92972 31.2187498,24.14844 17.036837,4.02241 30.47566,3.12984 43.773438,-2.90625 12.590219,-5.71483 12.71875,-5.71352 12.71875,0.0664 0,5.19141 2.158289,5.83789 19.453126,5.83789 h 19.45313 v -53.96485 c 0,-61.23452 -1.83827,-68.96977 -19.60547,-82.52148 -8.73784,-6.66469 -22.114321,-10.14107 -37.517583,-10.27539 z m -8.978516,74.9375 c 17.156575,0 27.212641,6.43579 27.150391,17.37695 -0.05533,9.73436 -2.377193,13.55946 -10.980469,18.08789 -10.518833,5.53668 -29.120384,4.18301 -37.949218,-2.76172 -16.953252,-13.33546 -4.055192,-32.70312 21.779296,-32.70312 z" style="fill:#ffffff" inkscape:connector-curvature="0"/>
      <path id="path4525" d="m 689.60849,605.8242 c -16.5718,0.20938 -33.90954,5.84422 -44.8418,15.89258 -12.68057,11.65531 -21.2799,34.32609 -21.3125,56.18554 -0.0392,26.36298 6.6995,44.94015 20.98438,57.84571 19.20378,17.34942 51.34158,21.38058 74.5918,9.35742 9.04764,-4.67876 9.13867,-4.64785 9.13867,2.98242 0,12.35364 -8.53396,25.4851 -19.55469,30.08985 -13.45017,5.61984 -23.42061,5.24 -43.29101,-1.64844 l -16.46094,-5.70508 -9.60938,9.26953 c -5.28538,5.09888 -8.91825,10.38826 -8.07422,11.75391 3.2754,5.29971 28.17518,17.85693 40.56836,20.45898 16.2324,3.4081 44.24173,1.46904 57.24219,-3.96289 12.57924,-5.25596 26.6599,-19.34863 33.90234,-33.93164 5.0445,-10.15732 5.78223,-19.98701 6.60743,-88.06445 l 0.92968,-76.62891 -14.0664,-1.92773 c -23.32312,-3.19678 -28.19336,-2.55209 -28.19336,3.73437 0,5.55523 -0.21118,5.55523 -11.10742,0 -7.84312,-3.99865 -17.51005,-5.8268 -27.45313,-5.70117 z m 6.22266,33.66406 c 9.67801,0.18738 18.43967,4.18451 24.67578,11.59571 6.41823,7.62763 7.66211,12.11968 7.66211,27.66406 0,21.51147 -4.7976,30.41738 -19.74805,36.66406 -11.16894,4.66667 -11.11825,4.66531 -23.81055,0.97656 -19.72448,-5.73249 -31.04984,-30.47836 -23.71484,-51.81445 5.02358,-14.61265 8.9775,-18.86987 21.32031,-22.94336 4.62632,-1.52682 9.21614,-2.22775 13.61524,-2.14258 z" style="fill:#ffffff" inkscape:connector-curvature="0"/>
      <path id="path4523" d="m 560.57919,605.86326 v 73.32032 73.32031 h 20.94922 20.94727 v -73.32031 -73.32032 h -20.94727 z" style="fill:#ffffff" inkscape:connector-curvature="0"/>
      <path d="m 441.37802,825.47264 c -3.5063,0.0502 -6.99575,4.21868 -11.59961,12.34765 -6.61105,11.67302 -8.79156,28.87524 -4.93554,38.92383 2.02272,5.27116 6.63732,5.01809 31.72851,-1.73828 13.40426,-3.60939 13.32556,-5.31065 -1.56054,-33.5957 -5.66324,-10.76067 -9.65901,-15.99441 -13.63282,-15.9375 z m -42.3164,-3.41602 c -3.42926,-0.22077 -7.51983,2.20213 -12.16797,7.4043 -8.21627,9.19559 -19.95644,38.64513 -16.70313,41.89844 0.96404,0.96404 8.17061,3.47967 16.01563,5.58984 25.02568,6.73156 24.73828,6.9232 24.73828,-16.51367 0,-24.61434 -4.33846,-37.8932 -11.88281,-38.37891 z m -42.17188,-7.99414 c -8.35776,0.18133 -19.50155,6.40715 -27.72461,16.17969 -9.58691,11.39341 -8.33571,14.07596 12.8418,27.55273 7.34838,4.6763 14.66281,8.06747 16.25391,7.53711 4.51544,-1.50517 10.3075,-20.24626 10.55859,-34.16406 0.17414,-9.6482 -1.1635,-13.35903 -5.68945,-15.78125 -1.77812,-0.95162 -3.90006,-1.37499 -6.24024,-1.32422 z m 123.06055,-1.70508 c -8.86885,0 -9.15235,0.42257 -9.15235,13.63868 0,7.50101 1.50629,19.62082 3.34766,26.93359 1.84139,7.31277 3.97033,13.29687 4.73047,13.29687 2.62273,0 33.83561,-21.54566 35.78711,-24.70312 1.07608,-1.74111 -4.23556,-9.01632 -11.80274,-16.16602 -10.05942,-9.50443 -16.21854,-13 -22.91015,-13 z m 25.02344,-23.88672 c -4.12529,0.1288 -4.24805,2.06621 -4.24805,8.04297 0,5.65285 3.95463,13.95281 10.89062,22.85547 12.18384,15.63848 12.55098,15.56788 27.5293,-5.28906 l 9.70313,-13.51172 -11.3418,-4.89648 c -6.23888,-2.69303 -17.0671,-5.602 -24.0625,-6.46485 -3.89283,-0.48017 -6.59557,-0.79487 -8.4707,-0.73633 z m -183.66797,-4.3496 c -0.83332,0.003 -1.66397,0.14341 -2.47266,0.4375 -2.83282,1.03014 -10.90236,5.77001 -17.93164,10.5332 -13.75746,9.32239 -13.7595,9.21699 0.37109,26.99219 4.90683,6.1724 9.70705,11.21979 10.66602,11.21679 3.71156,-0.0123 21.19531,-28.88837 21.19531,-35.00586 0,-7.49555 -5.99488,-14.19295 -11.82812,-14.17382 z M 333.13388,531.0449 v 110.73047 110.72852 h 20.94922 20.94922 v -46.38672 -46.38672 l 21.69726,0.0781 21.69727,0.0781 26.4375,46.30859 26.4375,46.3086 h 23.79492 c 23.72773,0 23.78401,-0.0179 20.26172,-6.73242 -1.94276,-3.70344 -14.29751,-25.52539 -27.45703,-48.49219 -13.25229,-23.12878 -22.4685,-42.24421 -20.6582,-42.84766 7.2915,-2.43051 22.83593,-14.66463 28.71679,-22.60156 5.30382,-7.15811 6.26172,-12.7275 6.26172,-36.44141 0,-23.7139 -0.9579,-29.28329 -6.26172,-36.4414 -16.63285,-22.448 -38.7088,-27.90235 -112.94336,-27.90235 h -49.88281 z m 85.67578,39.1875 c 23.05435,0.17654 34.82945,3.2357 41.89063,10.29688 9.64889,9.64889 9.06575,20.84053 -1.64258,31.54883 -8.74424,8.74485 -8.76355,8.74804 -46.50781,8.74804 h -37.75977 l 0.86914,-24.68945 0.86914,-24.68945 25.4375,-0.92774 c 4.31401,-0.15738 8.33344,-0.25423 12.08008,-0.28515 1.63916,-0.0135 3.22672,-0.0137 4.76367,-0.002 z M 524.9288,462.21482 c -1.35039,0 -7.34701,6.28003 -13.32812,13.95704 -10.13326,13.0065 -13.58075,24.23764 -8.88086,28.9375 5.25302,5.25305 42.64139,-4.72299 45.07617,-12.02735 1.12274,-3.36823 -19.24937,-30.86719 -22.86719,-30.86719 z m -214.73437,-3.94531 -10.97461,14.37305 c -6.03624,7.90544 -10.97461,15.40013 -10.97461,16.6543 0,1.25415 6.28945,6.44602 13.97852,11.53906 17.66349,11.69981 27.08624,12.12036 29.79492,1.32812 2.12073,-8.44967 -2.78609,-20.01735 -14.97266,-35.30078 z m 169.8125,-30.5 c -0.14778,0.0166 -0.27218,0.0534 -0.36914,0.11328 -5.95365,3.67957 -11.70078,48.42815 -6.84375,53.28516 1.0973,1.09733 5.21591,1.99414 9.15234,1.99414 9.52325,0 35.42016,-24.22888 32.9043,-30.78516 -2.06698,-5.38641 -30.26249,-25.12267 -34.84375,-24.60742 z m -125.5293,-0.0723 c -3.21735,0.18136 -8.02695,2.86758 -16.93945,9.00586 -9.00544,6.20228 -16.375,13.34186 -16.375,15.86523 0,2.5234 5.52211,9.83917 12.26953,16.25781 10.36489,9.85988 13.96291,11.5276 23.19336,10.75782 10.05075,-0.83816 11.003,-1.73441 11.9043,-11.19922 1.19133,-12.51073 -4.6649,-34.69606 -10.41797,-39.47071 -1.03974,-0.8629 -2.17234,-1.29923 -3.63477,-1.21679 z m 78.47461,-16.35938 c -5.57564,0 -10.03711,9.95609 -10.03711,22.39844 0,10.00817 5.55849,24.75155 12.71094,33.71484 1.64179,2.05747 4.74683,3.74024 6.90039,3.74024 3.96384,0 25.2793,-39.35325 25.2793,-46.67188 0,-3.58641 -25.37015,-13.18164 -34.85352,-13.18164 z m -28.16406,0 c -11.36086,0 -33.24315,6.78512 -34.77734,10.7832 -2.37478,6.18857 7.74535,33.32883 16.15429,43.32227 14.78717,17.57361 24.66558,5.2281 24.73438,-30.91211 0.0408,-21.42738 -0.42359,-23.19336 -6.11133,-23.19336 z" style="fill:#37a184;fill-opacity:1" id="path4507" inkscape:connector-curvature="0"/>
    </g>
  </g>
<script xmlns=""/></svg>